<?xml version="1.0" encoding="utf-8"?>
<!-- Generator: Adobe Illustrator 19.0.0, SVG Export Plug-In . SVG Version: 6.00 Build 0)  -->
<svg version="1.1" id="Layer_1" xmlns="http://www.w3.org/2000/svg" xmlns:xlink="http://www.w3.org/1999/xlink" x="0px" y="0px"
	 viewBox="0 0 120 32" style="enable-background:new 0 0 120 32;" xml:space="preserve">
<style type="text/css">
	.st0{fill:#BDBDBD;}
	.st1{fill:#E0E0E0;}
</style>
<g>
	<path class="st0" d="M4.7,15.7L0,20.5c0,0,12.8,11.8,27.9,11.5c16-0.3,25-7.2,29.9-13.8l-1-1.4c0,0-6.9,9.4-28.7,8.8
		C21.7,25.4,12.2,23.7,4.7,15.7z"/>
	<path class="st1" d="M11.5,15.6L10.1,17c0,0,6.4,8.1,21.1,7.5c14.7-0.7,20.7-10.4,20.7-10.4l-4.6-3.5c0,0-6.9,8.4-17.9,9.2
		C18.3,20.6,13.8,17.4,11.5,15.6z"/>
	<path class="st0" d="M11.1,0H9c0,0-0.4,18,18.9,18.9c6.4,0.3,17.9-5.6,17.6-18.9h-1.7c0,0-0.5,12.5-16.2,13.5
		C22.2,13.9,12.2,10.1,11.1,0z"/>
	<g>
		<path class="st0" d="M60.9,2.6h3.4v0.5h-2.9v2h2.1v0.5h-2.1V8h3v0.5h-3.6V2.6z"/>
		<path class="st0" d="M65.7,6.5V2.6h0.5v3.8c0,1,0.5,1.7,1.5,1.7c1.1,0,1.5-0.7,1.5-1.7V2.6h0.5v3.9c0,1.2-0.7,2.1-2.1,2.1
			C66.4,8.6,65.7,7.7,65.7,6.5z"/>
		<path class="st0" d="M71.5,2.6h1.9c1.3,0,2,0.6,2,1.6c0,1-0.5,1.4-1.4,1.6l1.4,2.7h-0.6l-1.4-2.7h-1.4v2.7h-0.5V2.6z M73.4,5.4
			c0.9,0,1.5-0.3,1.5-1.1c0-0.8-0.5-1.1-1.5-1.1h-1.3v2.2H73.4z"/>
		<path class="st0" d="M76.6,5.6c0-1.9,1-3.1,2.4-3.1c1.4,0,2.4,1.2,2.4,3.1c0,1.9-1,3.1-2.4,3.1C77.6,8.7,76.6,7.4,76.6,5.6z
			 M80.8,5.6C80.8,4,80.1,3,79,3c-1.1,0-1.9,0.9-1.9,2.6c0,1.6,0.8,2.6,1.9,2.6C80.1,8.1,80.8,7.2,80.8,5.6z"/>
		<path class="st0" d="M82.8,2.6h1.9c1.2,0,2,0.5,2,1.6c0,1.2-0.8,1.7-2,1.7h-1.3v2.6h-0.5V2.6z M84.7,5.4c0.9,0,1.5-0.3,1.5-1.2
			c0-0.8-0.5-1.1-1.5-1.1h-1.3v2.3H84.7z"/>
		<path class="st0" d="M88,2.6h3.4v0.5h-2.9v2h2.1v0.5h-2.1V8h3v0.5H88V2.6z"/>
		<path class="st0" d="M94.5,2.6h0.6l2,5.9h-0.6l-0.6-1.8h-2.3L93,8.5h-0.5L94.5,2.6z M95.7,6.2l-1-2.9h0l-1,2.9H95.7z"/>
		<path class="st0" d="M98.4,2.6h0.6l3.1,4.9h0V2.6h0.5v5.9h-0.5l-3.2-5h0v5h-0.5V2.6z"/>
	</g>
	<g>
		<path class="st1" d="M61,13.6h0.7l2,4.6h0l2-4.6h0.7v5.2h-0.6v-4.4h0c-0.1,0.2-0.2,0.6-0.4,0.9l-1.5,3.5h-0.5l-1.5-3.5
			c-0.1-0.3-0.2-0.6-0.4-0.9h0v4.4H61V13.6z"/>
		<path class="st1" d="M68,13.6h0.6v5.2H68V13.6z"/>
		<path class="st1" d="M69.8,16.2c0-1.6,1-2.7,2.5-2.7c1.2,0,1.9,0.6,2.1,1.6l-0.5,0.1c-0.3-0.8-0.7-1.3-1.6-1.3
			c-1.1,0-1.9,0.9-1.9,2.2c0,1.4,0.7,2.3,1.9,2.3c0.9,0,1.4-0.5,1.7-1.3l0.5,0.1c-0.3,1-1.1,1.7-2.2,1.7
			C70.8,19,69.8,17.9,69.8,16.2z"/>
		<path class="st1" d="M75.7,13.6h2c1.3,0,2,0.5,2,1.4c0,0.8-0.6,1.3-1.4,1.4l1.5,2.4h-0.6l-1.4-2.3h-1.5v2.3h-0.6V13.6z M77.6,16.1
			c1,0,1.5-0.2,1.5-1c0-0.7-0.5-1-1.5-1h-1.4v2H77.6z"/>
		<path class="st1" d="M80.7,16.3c0-1.6,1-2.7,2.5-2.7c1.4,0,2.5,1.1,2.5,2.7c0,1.6-1,2.7-2.5,2.7C81.7,19,80.7,17.9,80.7,16.3z
			 M85.1,16.3c0-1.4-0.8-2.3-1.9-2.3c-1.1,0-1.9,0.8-1.9,2.3s0.8,2.3,1.9,2.3C84.3,18.5,85.1,17.7,85.1,16.3z"/>
		<path class="st1" d="M86.8,13.6h3.4v0.5h-2.9v1.8h2.1v0.5h-2.1v2.5h-0.6V13.6z"/>
		<path class="st1" d="M91.4,13.6H92v5.2h-0.6V13.6z"/>
		<path class="st1" d="M93.6,13.6h0.6l3.2,4.3h0v-4.3H98v5.2h-0.5l-3.4-4.4h0v4.4h-0.5V13.6z"/>
		<path class="st1" d="M101.1,13.6h0.6l2.1,5.3h-0.6l-0.6-1.6h-2.4l-0.6,1.6H99L101.1,13.6z M102.4,16.8l-1-2.6h0l-1,2.6H102.4z"/>
		<path class="st1" d="M104.8,13.6h0.6l3.2,4.3h0v-4.3h0.5v5.2h-0.5l-3.4-4.4h0v4.4h-0.5V13.6z"/>
		<path class="st1" d="M110.5,16.2c0-1.6,1-2.7,2.5-2.7c1.2,0,1.9,0.6,2.1,1.6l-0.5,0.1c-0.3-0.8-0.7-1.3-1.6-1.3
			c-1.1,0-1.9,0.9-1.9,2.2c0,1.4,0.7,2.3,1.9,2.3c0.9,0,1.4-0.5,1.7-1.3l0.5,0.1c-0.3,1-1,1.7-2.2,1.7
			C111.4,19,110.5,17.9,110.5,16.2z"/>
		<path class="st1" d="M116.3,13.6h3.5v0.5h-3v1.8h2.2v0.5h-2.2v2.1h3.1v0.5h-3.7V13.6z"/>
	</g>
	<g>
		<path class="st0" d="M62.6,23.9h0.6l2.1,5.4h-0.6l-0.6-1.7h-2.4L61,29.3h-0.6L62.6,23.9z M63.9,27.2l-1-2.7h0l-1,2.7H63.9z"/>
		<path class="st0" d="M65.6,23.9h0.6l0.9,3.3c0.1,0.5,0.3,1,0.4,1.4h0c0.1-0.4,0.2-0.9,0.3-1.4l0.9-3.3h0.6l0.9,3.3
			c0.1,0.5,0.3,0.9,0.3,1.3h0c0.1-0.4,0.2-0.8,0.3-1.3l0.9-3.3h0.5l-1.6,5.4h-0.5L69,24.6h0l-1.3,4.7h-0.5L65.6,23.9z"/>
		<path class="st0" d="M74.7,23.9h0.6l2.1,5.4h-0.6l-0.6-1.7h-2.4l-0.6,1.7h-0.6L74.7,23.9z M76,27.2l-1-2.7h0l-1,2.7H76z"/>
		<path class="st0" d="M78.5,23.9h2c1.3,0,2.1,0.5,2.1,1.5c0,0.9-0.6,1.3-1.4,1.5l1.5,2.5H82l-1.4-2.4h-1.5v2.4h-0.6V23.9z
			 M80.5,26.4c1,0,1.5-0.3,1.5-1c0-0.7-0.5-1-1.5-1h-1.4v2H80.5z"/>
		<path class="st0" d="M84,23.9h1.5c1.9,0,2.9,0.9,2.9,2.7c0,1.8-1,2.7-2.9,2.7H84V23.9z M85.5,28.8c1.5,0,2.3-0.7,2.3-2.2
			c0-1.5-0.8-2.2-2.3-2.2h-1v4.5H85.5z"/>
	</g>
</g>
</svg>
