<?xml version="1.0" encoding="utf-8"?>
<!-- Generator: Adobe Illustrator 19.0.0, SVG Export Plug-In . SVG Version: 6.00 Build 0)  -->
<svg version="1.1" id="Layer_1" xmlns="http://www.w3.org/2000/svg" xmlns:xlink="http://www.w3.org/1999/xlink" x="0px" y="0px"
	 viewBox="0 0 66 66" style="enable-background:new 0 0 66 66;" xml:space="preserve">
<style type="text/css">
	.st0{fill:#A6A6A6;}
	.st1{fill:#E0E0E0;}
</style>
<g>
	<path class="st0" d="M63.2,35.3L66,33l-2.8-2.3l2.4-2.7l-3.1-1.8l2-3l-3.3-1.3l1.5-3.3l-3.5-0.8l1-3.5l-3.6-0.3l0.5-3.6l-3.6,0.2
		l0-3.6l-3.5,0.8l-0.6-3.6l-3.4,1.3l-1.1-3.4L41.9,4l-1.6-3.2L37.5,3l-2.1-3L33,2.6L30.5,0l-2.1,3l-2.8-2.2L24.1,4l-3.1-1.8
		l-1.1,3.4l-3.4-1.3l-0.6,3.6l-3.5-0.8l0,3.6l-3.6-0.2l0.5,3.6l-3.6,0.3l1,3.5l-3.5,0.8l1.5,3.3l-3.3,1.3l2,3l-3.1,1.8l2.4,2.7L0,33
		l2.8,2.3l-2.4,2.7l3.1,1.8l-2,3l3.3,1.3l-1.5,3.3l3.5,0.8l-1,3.5l3.6,0.3l-0.5,3.6l3.6-0.2l0,3.6l3.5-0.8l0.6,3.6l3.4-1.3l1.1,3.4
		l3.1-1.8l1.6,3.2l2.8-2.2l2.1,3l2.5-2.6l2.5,2.6l2.1-3l2.8,2.2l1.6-3.2l3.1,1.8l1.1-3.4l3.4,1.3l0.6-3.6l3.5,0.8l0-3.6l3.6,0.2
		l-0.5-3.6l3.6-0.3l-1-3.5l3.5-0.8l-1.5-3.3l3.3-1.3l-2-3l3.1-1.8L63.2,35.3z M33,62.7C16.7,62.7,3.4,49.4,3.4,33
		C3.4,16.6,16.7,3.3,33,3.3S62.6,16.6,62.6,33C62.6,49.4,49.3,62.7,33,62.7z"/>
	<g>
		<path class="st0" d="M33.2,61.4c-15.7,0-28.5-12.8-28.5-28.6S17.5,4.2,33.2,4.2C49,4.2,61.8,17,61.8,32.8S49,61.4,33.2,61.4z
			 M33.2,4.7c-15.4,0-28,12.6-28,28.1c0,15.5,12.6,28.1,28,28.1c15.4,0,28-12.6,28-28.1C61.2,17.3,48.7,4.7,33.2,4.7z"/>
	</g>
	<g>
		<path d="M33.2,55.2c-12.3,0-22.4-10.1-22.4-22.4s10-22.4,22.4-22.4c12.3,0,22.4,10.1,22.4,22.4S45.6,55.2,33.2,55.2z M33.2,10.9
			c-12,0-21.8,9.8-21.8,21.9c0,12.1,9.8,21.9,21.8,21.9c12,0,21.8-9.8,21.8-21.9C55.1,20.7,45.3,10.9,33.2,10.9z"/>
	</g>
	<g>
		<path class="st0" d="M33.2,55.2c-12.3,0-22.4-10.1-22.4-22.4s10-22.4,22.4-22.4c12.3,0,22.4,10.1,22.4,22.4S45.6,55.2,33.2,55.2z
			 M33.2,10.9c-12,0-21.8,9.8-21.8,21.9c0,12.1,9.8,21.9,21.8,21.9c12,0,21.8-9.8,21.8-21.9C55.1,20.7,45.3,10.9,33.2,10.9z"/>
	</g>
	<g>
		<path class="st0" d="M33.2,54c-11.7,0-21.1-9.5-21.1-21.2c0-11.7,9.5-21.2,21.1-21.2c11.7,0,21.1,9.5,21.1,21.2
			C54.4,44.5,44.9,54,33.2,54z M33.2,12.1c-11.4,0-20.6,9.3-20.6,20.7c0,11.4,9.2,20.7,20.6,20.7c11.4,0,20.6-9.3,20.6-20.7
			C53.8,21.4,44.6,12.1,33.2,12.1z"/>
	</g>
	<g>
		<path class="st0" d="M33,62.9C16.5,62.9,3.2,49.5,3.2,33C3.2,16.5,16.5,3.1,33,3.1S62.8,16.5,62.8,33C62.8,49.5,49.5,62.9,33,62.9
			z M33,3.6C16.8,3.6,3.7,16.8,3.7,33S16.8,62.4,33,62.4S62.3,49.2,62.3,33S49.2,3.6,33,3.6z"/>
	</g>
	<g>
		<path class="st0" d="M10.1,22c-0.8-0.4-1.1-1.2-0.8-1.8c0.3-0.5,0.8-0.7,1.3-0.5l-0.1,0.3c-0.5-0.1-0.8,0-1,0.4
			c-0.3,0.5,0,1.1,0.7,1.4c0.7,0.4,1.3,0.3,1.6-0.2c0.2-0.4,0.1-0.8-0.3-1.1l0.2-0.2c0.5,0.4,0.6,0.9,0.3,1.5
			C11.7,22.3,11,22.4,10.1,22z"/>
		<path class="st0" d="M10.5,18.2l0.2-0.2l2.5,1.6L13,19.9L10.5,18.2z"/>
		<path class="st0" d="M11.4,17.1l0.2-0.2l0.2,0.2l-0.2,0.2L11.4,17.1z M12,17.5l0.2-0.2l1.7,1.3l-0.2,0.2L12,17.5z"/>
		<path class="st0" d="M13.6,17.2c-0.6-0.5-0.5-1.1-0.2-1.4c0.3-0.4,0.9-0.4,1.4,0.1l0,0l-1,1.2c0.4,0.3,0.8,0.3,1.1,0
			c0.2-0.2,0.2-0.5,0.1-0.8l0.2,0c0.1,0.3,0.1,0.7-0.2,1C14.7,17.6,14.1,17.7,13.6,17.2z M14.4,15.9c-0.3-0.2-0.7-0.3-0.9,0
			c-0.2,0.2-0.2,0.6,0.1,1L14.4,15.9z"/>
		<path class="st0" d="M14.6,14.4l0.2-0.2l0.2,0.2c0-0.3,0.1-0.6,0.3-0.8c0.3-0.3,0.6-0.3,0.9,0l1.1,1.1l-0.2,0.2l-1-1.1
			c-0.2-0.2-0.4-0.2-0.6,0c-0.2,0.2-0.3,0.5-0.3,0.8l1.1,1.1l-0.2,0.2L14.6,14.4z"/>
		<path class="st0" d="M17.8,13.7L17,12.6l-0.3,0.2l-0.1-0.2l0.3-0.2l-0.5-0.6l0.2-0.2l0.5,0.6l0.4-0.3l0.1,0.2l-0.4,0.3l0.8,1.1
			c0.1,0.2,0.3,0.2,0.5,0.1c0.1-0.1,0.1-0.1,0.2-0.2l0.1,0.2c0,0-0.1,0.1-0.2,0.2C18.3,14,18.1,14,17.8,13.7z"/>
		<path class="st0" d="M19,9.8l0.9-0.5c0.6-0.3,1-0.3,1.3,0.2c0.3,0.5,0,1-0.5,1.3l-0.6,0.3l0.7,1.2l-0.2,0.1L19,9.8z M20.6,10.5
			c0.4-0.2,0.6-0.5,0.4-0.9c-0.2-0.4-0.5-0.4-0.9-0.1l-0.6,0.3l0.6,1L20.6,10.5z"/>
		<path class="st0" d="M22,9.1L22.3,9l0.2,0.4l0,0c0-0.3,0.2-0.6,0.6-0.8l0,0l0.1,0.2c0,0-0.1,0-0.1,0c-0.3,0.1-0.5,0.4-0.5,0.8
			l0.6,1.3l-0.3,0.1L22,9.1z"/>
		<path class="st0" d="M24,9.4c-0.2-0.7,0-1.2,0.5-1.4c0.5-0.2,1,0.1,1.3,0.7c0.2,0.7,0,1.2-0.5,1.4C24.8,10.3,24.3,10.1,24,9.4z
			 M25.6,8.8c-0.2-0.4-0.5-0.7-0.9-0.6c-0.4,0.1-0.5,0.6-0.4,1c0.2,0.4,0.5,0.8,0.9,0.6C25.6,9.8,25.8,9.3,25.6,8.8z"/>
		<path class="st0" d="M27,9l-0.3-1.4l-0.4,0.1l-0.1-0.2l0.4-0.1l-0.2-0.7l0.3-0.1l0.2,0.7l0.5-0.1l0.1,0.2l-0.5,0.1l0.3,1.3
			c0.1,0.2,0.2,0.3,0.4,0.3c0.1,0,0.2,0,0.2-0.1l0.1,0.2c-0.1,0-0.2,0.1-0.3,0.1C27.3,9.5,27.1,9.4,27,9z"/>
		<path class="st0" d="M28.4,8.1c-0.1-0.7,0.3-1.2,0.7-1.2c0.5-0.1,0.9,0.2,1,1l0,0.1l-1.5,0.2c0.1,0.5,0.4,0.8,0.8,0.7
			c0.3-0.1,0.5-0.2,0.6-0.5l0.2,0.1c-0.1,0.3-0.4,0.6-0.8,0.6C29,9.2,28.5,8.8,28.4,8.1z M29.9,7.7c-0.1-0.4-0.3-0.7-0.7-0.6
			c-0.3,0-0.6,0.3-0.5,0.8L29.9,7.7z"/>
		<path class="st0" d="M30.9,7.8c0-0.8,0.4-1.1,0.9-1.2c0.5,0,0.7,0.2,0.8,0.5l-0.2,0.1c-0.1-0.3-0.3-0.4-0.6-0.4
			c-0.3,0-0.6,0.3-0.6,0.9c0,0.6,0.3,0.9,0.7,0.8c0.3,0,0.5-0.2,0.6-0.5l0.2,0.1c-0.1,0.4-0.4,0.6-0.8,0.6C31.4,8.8,31,8.5,30.9,7.8
			z"/>
		<path class="st0" d="M33.7,8.2l0-1.4l-0.4,0l0-0.2l0.4,0l0-0.8l0.3,0l0,0.8l0.6,0l0,0.2l-0.6,0l0,1.3c0,0.2,0.1,0.4,0.3,0.4
			c0.1,0,0.2,0,0.2,0l0,0.2c-0.1,0-0.2,0-0.3,0C33.8,8.8,33.7,8.6,33.7,8.2z"/>
		<path class="st0" d="M35.5,6.7l0.3,0l-0.2,2.1l-0.3,0L35.5,6.7z M35.6,5.9l0.3,0l0,0.3l-0.3,0L35.6,5.9z"/>
		<path class="st0" d="M36.6,7.9c0.1-0.7,0.6-1,1.1-0.9c0.5,0.1,0.9,0.6,0.8,1.3c-0.1,0.7-0.6,1-1.1,0.9C36.9,9,36.5,8.6,36.6,7.9z
			 M38.3,8.2c0.1-0.5-0.1-0.9-0.5-1c-0.4-0.1-0.7,0.2-0.8,0.7c-0.1,0.5,0.1,0.9,0.5,1C37.9,9,38.2,8.7,38.3,8.2z"/>
		<path class="st0" d="M39.7,7.4L40,7.5l-0.1,0.3c0.3-0.1,0.6-0.2,0.9-0.1c0.4,0.1,0.5,0.4,0.4,0.8l-0.4,1.5l-0.3-0.1l0.4-1.4
			c0.1-0.3,0-0.5-0.3-0.5c-0.3-0.1-0.5,0-0.8,0.2l-0.4,1.5l-0.3-0.1L39.7,7.4z"/>
		<path class="st0" d="M43.3,9.3c0.4-0.8,1.1-1.2,1.8-0.8c0.5,0.3,0.7,0.7,0.6,1.3l-0.3-0.1c0.1-0.5,0-0.8-0.4-1
			c-0.5-0.3-1.1,0-1.4,0.7c-0.4,0.7-0.2,1.4,0.3,1.6c0.4,0.2,0.8,0.1,1.1-0.3l0.2,0.2c-0.4,0.5-0.9,0.6-1.4,0.4
			C43.1,10.9,42.9,10.1,43.3,9.3z"/>
		<path class="st0" d="M45.9,11.1c0.4-0.6,1-0.7,1.4-0.4c0.4,0.3,0.5,0.8,0.1,1.4l0,0l-1.3-0.8c-0.3,0.4-0.2,0.9,0.1,1.1
			c0.3,0.2,0.5,0.2,0.8,0l0.1,0.2c-0.3,0.2-0.6,0.2-1-0.1C45.7,12.3,45.5,11.7,45.9,11.1z M47.3,11.8c0.2-0.4,0.2-0.7-0.1-0.9
			c-0.3-0.2-0.6-0.1-0.9,0.2L47.3,11.8z"/>
		<path class="st0" d="M48.8,11.8l0.2,0.2l-0.3,0.3l0,0c0.3-0.1,0.6-0.1,1,0.2l0,0l-0.2,0.2c0,0-0.1-0.1-0.1-0.1
			c-0.3-0.2-0.6-0.2-0.9-0.1l-0.8,1.1l-0.2-0.2L48.8,11.8z"/>
		<path class="st0" d="M49.4,14.4l0.9-1l-0.3-0.2l0.2-0.2l0.3,0.2l0.5-0.6l0.2,0.2l-0.5,0.6l0.4,0.4L51,13.9l-0.4-0.4l-0.9,1
			c-0.2,0.2-0.2,0.3,0,0.5c0.1,0.1,0.1,0.1,0.2,0.1l-0.2,0.2c-0.1,0-0.1-0.1-0.2-0.2C49.2,14.9,49.2,14.6,49.4,14.4z"/>
		<path class="st0" d="M51.8,14.4l0.2,0.2l-1.5,1.5l-0.2-0.2L51.8,14.4z M52.4,13.8l0.2,0.2l-0.2,0.2L52.2,14L52.4,13.8z"/>
		<path class="st0" d="M52.7,15.7l-0.2-0.3l0.2-0.2l0.2,0.3l0.2-0.2c0.3-0.2,0.6-0.2,0.8,0.1c0,0,0.1,0.1,0.1,0.1l-0.2,0.2
			c0,0-0.1-0.1-0.1-0.1c-0.1-0.2-0.3-0.2-0.5-0.1l-0.2,0.2l0.3,0.3l-0.2,0.2l-0.3-0.3l-1.5,1.2l-0.2-0.2L52.7,15.7z M53.6,16.4
			l0.2,0.2L52.2,18L52,17.8L53.6,16.4z M54.2,15.9l0.2,0.2l-0.2,0.2L54,16.1L54.2,15.9z"/>
		<path class="st0" d="M53.6,18.1c0.6-0.4,1.2-0.2,1.4,0.2c0.3,0.4,0.2,0.9-0.4,1.3l0,0l-0.8-1.3c-0.4,0.3-0.5,0.7-0.3,1
			c0.2,0.3,0.4,0.3,0.7,0.3l0,0.2c-0.4,0-0.7-0.1-0.9-0.4C52.9,19.1,53,18.5,53.6,18.1z M54.6,19.3c0.3-0.2,0.5-0.6,0.3-0.9
			c-0.2-0.3-0.5-0.4-0.9-0.1L54.6,19.3z"/>
		<path class="st0" d="M55,20.3c0.7-0.3,1.2-0.2,1.4,0.3c0.1,0.2,0.1,0.5,0,0.8l1-0.5l0.1,0.2l-2.2,1.1c-0.2,0.1-0.4,0.2-0.4,0.3
			l-0.1-0.3c0.1-0.1,0.2-0.1,0.3-0.2c-0.2-0.1-0.5-0.2-0.6-0.5C54.2,21.1,54.3,20.6,55,20.3z M55.3,21.9l0.9-0.5
			c0.1-0.3,0.1-0.5,0-0.8c-0.2-0.3-0.5-0.4-1.1-0.2c-0.5,0.3-0.6,0.7-0.5,1C54.8,21.7,55,21.9,55.3,21.9z"/>
	</g>
	<g>
		<path class="st0" d="M16,48.8l0.2,0.2l-1.5,2.8l-0.2-0.2l0.5-0.9l-0.8-0.9l-0.9,0.4L13.1,50L16,48.8z M15.1,50.5l0.8-1.4l0,0
			l-1.4,0.6L15.1,50.5z"/>
		<path class="st0" d="M16.7,50.8l0.2,0.2l-0.5,1c-0.1,0.3-0.2,0.4-0.3,0.7l0,0c0.3-0.2,0.4-0.3,0.6-0.4l0.9-0.6l0.2,0.2l-0.5,1
			c-0.1,0.2-0.2,0.4-0.3,0.7l0,0c0.2-0.2,0.4-0.3,0.6-0.4l0.9-0.6l0.2,0.2l-1.9,1.2l-0.2-0.2l0.8-1.7l0,0L16,53l-0.2-0.2L16.7,50.8z
			"/>
		<path class="st0" d="M18.4,54.3c0.2-0.4,0.7-0.4,1.7,0l0.1-0.1c0.2-0.2,0.1-0.5-0.1-0.6c-0.3-0.2-0.6-0.2-0.9-0.2l0-0.2
			c0.3-0.1,0.7,0,1,0.2c0.4,0.3,0.4,0.6,0.2,0.9l-0.5,0.8c-0.1,0.2-0.2,0.4-0.2,0.5l-0.2-0.2c0-0.1,0.1-0.2,0.1-0.3
			c-0.3,0.1-0.6,0-0.9-0.2C18.3,54.9,18.3,54.6,18.4,54.3z M19.7,55.1l0.4-0.6c-0.8-0.4-1.2-0.3-1.3-0.1c-0.1,0.2-0.1,0.4,0.1,0.5
			C19.1,55.1,19.4,55.2,19.7,55.1z"/>
		<path class="st0" d="M21.7,54.4l0.2,0.1l-0.2,0.4l0,0c0.3-0.2,0.6-0.2,1,0l0,0l-0.1,0.2c0,0-0.1,0-0.1,0c-0.3-0.2-0.6-0.1-0.9,0.1
			l-0.6,1.2l-0.2-0.1L21.7,54.4z"/>
		<path class="st0" d="M22.8,56.2c0.3-0.7,0.8-0.9,1.3-0.7c0.3,0.1,0.4,0.3,0.5,0.6L25,55l0.3,0.1l-0.9,2.3
			c-0.1,0.2-0.1,0.4-0.1,0.5L24,57.8c0-0.1,0-0.2,0.1-0.3c-0.2,0.1-0.5,0.2-0.8,0.1C22.8,57.4,22.6,56.9,22.8,56.2z M24.1,57.3
			l0.4-1c-0.1-0.3-0.3-0.5-0.5-0.6c-0.3-0.1-0.7,0-0.9,0.6c-0.2,0.5-0.1,0.9,0.3,1C23.6,57.5,23.9,57.4,24.1,57.3z"/>
		<path class="st0" d="M25.6,57.3c0.2-0.7,0.8-0.9,1.2-0.8c0.5,0.1,0.7,0.6,0.5,1.3l0,0.1l-1.5-0.4c-0.1,0.5,0.1,0.9,0.4,1
			c0.3,0.1,0.5,0,0.7-0.2l0.1,0.2c-0.3,0.2-0.6,0.3-1,0.2C25.7,58.5,25.4,58,25.6,57.3z M27.1,57.5c0.1-0.4,0-0.7-0.4-0.8
			c-0.3-0.1-0.6,0.1-0.8,0.5L27.1,57.5z"/>
		<path class="st0" d="M28.2,58c0.1-0.7,0.6-1,1.1-1c0.3,0,0.5,0.2,0.6,0.4l0.2-1.1l0.3,0L30,58.8c0,0.3-0.1,0.4,0,0.5l-0.3,0
			c0-0.1,0-0.2,0-0.3c-0.2,0.2-0.4,0.3-0.8,0.2C28.4,59.1,28.1,58.7,28.2,58z M29.7,58.7l0.2-1c-0.2-0.3-0.4-0.4-0.6-0.5
			c-0.4-0.1-0.7,0.2-0.8,0.8c-0.1,0.6,0.2,0.9,0.5,1C29.3,59,29.5,58.9,29.7,58.7z"/>
		<path class="st0" d="M33.4,56.5l0.3,0l1.1,3l-0.3,0l-0.3-0.9l-1.2,0l-0.3,0.9l-0.3,0L33.4,56.5z M34.1,58.3l-0.5-1.5l0,0L33,58.4
			L34.1,58.3z"/>
		<path class="st0" d="M35.6,57.3l0.3,0l0,0.3c0.1-0.2,0.3-0.4,0.7-0.4c0.5-0.1,0.9,0.2,1,1c0.1,0.7-0.2,1.1-0.7,1.2
			c-0.3,0-0.5-0.1-0.7-0.2l0.1,1.1l-0.3,0L35.6,57.3z M37.3,58.1c-0.1-0.6-0.4-0.8-0.8-0.8c-0.3,0-0.4,0.2-0.6,0.4l0.1,1
			c0.2,0.2,0.5,0.3,0.7,0.3C37.2,59,37.4,58.7,37.3,58.1z"/>
		<path class="st0" d="M38.4,56.8l0.3-0.1l0.1,0.4l0,0c0.1-0.3,0.3-0.5,0.7-0.6l0,0l0,0.3c0,0-0.1,0-0.1,0c-0.3,0.1-0.6,0.3-0.6,0.7
			l0.3,1.4l-0.3,0.1L38.4,56.8z"/>
		<path class="st0" d="M40.1,55.6l0.3-0.1l0.1,0.3l-0.3,0.1L40.1,55.6z M40.4,56.3l0.3-0.1l0.6,2L41,58.4L40.4,56.3z"/>
		<path class="st0" d="M41.4,55.1l0.3-0.1l1.1,2.8l-0.3,0.1L41.4,55.1z"/>
		<path class="st0" d="M45.1,56.7c-0.2-0.4-0.2-0.8,0.2-1.7c0.3-0.5,0.3-0.7,0.2-1c-0.2-0.3-0.5-0.4-0.8-0.2
			c-0.3,0.2-0.4,0.4-0.4,0.8l-0.3,0c0-0.5,0.2-0.8,0.5-1c0.5-0.3,0.9-0.1,1.2,0.3c0.2,0.4,0.2,0.7-0.2,1.3c-0.3,0.6-0.4,1-0.3,1.2
			l1.4-0.8l0.1,0.2L45.1,56.7L45.1,56.7z"/>
		<path class="st0" d="M46.8,54c-0.5-0.8-0.6-1.5,0-1.9c0.6-0.4,1.2-0.1,1.8,0.6s0.6,1.5,0,1.9C48.1,55,47.4,54.7,46.8,54z
			 M48.4,52.9c-0.5-0.7-1-0.9-1.4-0.6c-0.4,0.3-0.4,0.8,0.1,1.5c0.5,0.7,1,0.9,1.4,0.6C48.9,54.1,48.9,53.6,48.4,52.9z"/>
		<path class="st0" d="M50.2,53l0.4-0.4L49,50.8c-0.1,0.2-0.2,0.4-0.3,0.5l-0.2-0.2c0.2-0.2,0.3-0.3,0.3-0.5l0.2-0.2l1.8,2l0.4-0.3
			l0.2,0.2l-1,0.9L50.2,53z"/>
		<path class="st0" d="M52.3,50.2l-1,1.1l-0.2-0.1l-0.6-2.4l0.2-0.3l1.5,1.4l0.3-0.4l0.2,0.2L52.5,50l0.5,0.5l-0.2,0.2L52.3,50.2z
			 M52.1,50.1l-1.2-1.1l0,0l0.5,2L52.1,50.1z"/>
	</g>
	<g>
		<path class="st0" d="M23.2,37.4l0.7-0.8c0.5,0.4,1.2,0.6,1.9,0.6c0.5,0,0.9-0.1,0.9-0.5c0-0.3-0.3-0.4-1-0.6
			c-1-0.2-2.2-0.4-2.2-1.5c0-0.9,0.9-1.5,2.1-1.5c1.1,0,1.8,0.2,2.4,0.7l-0.7,0.8c-0.6-0.3-1.1-0.5-1.6-0.5c-0.5,0-0.7,0.2-0.7,0.4
			c0,0.3,0.3,0.4,1,0.5c1.1,0.2,2.2,0.4,2.2,1.4c0,1.1-1.2,1.6-2.4,1.6C24.6,38.1,23.8,37.8,23.2,37.4z"/>
		<path class="st0" d="M29.1,33.3h1.7V34c0.3-0.4,0.9-0.8,1.8-0.8c0.9,0,1.4,0.3,1.5,0.8c0.3-0.4,0.9-0.8,1.8-0.8
			c1.1,0,1.6,0.6,1.6,1.4V38h-1.7v-3c0-0.4-0.1-0.6-0.6-0.6c-0.4,0-0.7,0.2-1.1,0.5V38h-1.7v-3c0-0.4-0.1-0.6-0.6-0.6
			c-0.4,0-0.7,0.2-1.1,0.5V38h-1.7V33.3z"/>
		<path class="st0" d="M38.4,36.8c0-1.1,1.1-1.7,3.5-1.8v-0.1c0-0.3-0.2-0.6-0.7-0.6c-0.7,0-1.3,0.2-1.8,0.6L38.6,34
			c0.5-0.4,1.4-0.8,2.7-0.8c1.5,0,2.1,0.6,2.1,1.8v1.8c0,0.6,0,0.9,0.2,1.1H42c-0.1-0.2-0.1-0.4-0.1-0.7c-0.5,0.5-1.1,0.8-1.9,0.8
			C39.1,38.1,38.4,37.6,38.4,36.8z M41.9,36.6v-0.9c-1.3,0.1-1.9,0.4-1.9,0.8c0,0.3,0.2,0.4,0.6,0.4C41.2,37,41.6,36.8,41.9,36.6z"
			/>
		<path class="st0" d="M44.7,33.3h1.7v0.8h0c0.3-0.4,0.8-0.9,1.9-0.9h0.1l0,1.3c-0.1,0-0.3,0-0.4,0c-0.7,0-1.2,0.3-1.5,0.6V38h-1.7
			V33.3z"/>
		<path class="st0" d="M49.5,36.7v-2.3h-0.9v-1h0.9v-1.6h1.7v1.6h1.4v1h-1.4v2c0,0.5,0.2,0.7,0.8,0.7c0.2,0,0.4,0,0.5-0.1v1
			c-0.1,0-0.7,0.1-1.1,0.1C49.7,38.1,49.5,37.6,49.5,36.7z"/>
	</g>
	<g>
		<path class="st0" d="M24.8,31.8c-0.3,0-0.5-0.2-0.5-0.5v-1h-0.2v-0.2h0.2v-0.5h0.3v0.5H25v0.2h-0.4v1c0,0.2,0.1,0.2,0.3,0.2H25
			v0.2H24.8z"/>
		<path class="st0" d="M26.8,31.8v-1.1c0-0.3-0.2-0.4-0.5-0.4c-0.3,0-0.5,0.2-0.5,0.4v1.1h-0.3v-2.5h0.3v0.9
			c0.1-0.1,0.3-0.2,0.5-0.2c0.4,0,0.7,0.2,0.7,0.6v1.1H26.8z"/>
		<path class="st0" d="M27.9,31c0,0.4,0.2,0.6,0.6,0.6c0.2,0,0.3-0.1,0.5-0.2l0.2,0.1c-0.2,0.2-0.4,0.3-0.7,0.3
			c-0.5,0-0.8-0.3-0.8-0.9c0-0.6,0.3-0.9,0.8-0.9c0.5,0,0.8,0.3,0.8,0.8V31H27.9z M28.8,30.6c-0.1-0.2-0.2-0.3-0.4-0.3
			c-0.2,0-0.4,0.1-0.4,0.3c0,0.1,0,0.1-0.1,0.3h1C28.9,30.7,28.9,30.7,28.8,30.6z"/>
	</g>
	<g>
		<path class="st0" d="M29.2,42.1c-0.6,0-1-0.4-1-1.1c0-0.7,0.5-1.1,1-1.1c0.3,0,0.5,0.1,0.8,0.3l-0.2,0.2c-0.2-0.2-0.3-0.2-0.5-0.2
			c-0.2,0-0.4,0.1-0.5,0.2c-0.1,0.1-0.2,0.3-0.2,0.6c0,0.3,0,0.4,0.2,0.6c0.1,0.2,0.3,0.2,0.5,0.2c0.2,0,0.4-0.1,0.5-0.2l0.2,0.2
			C29.8,42,29.5,42.1,29.2,42.1z"/>
		<path class="st0" d="M31.9,42.1v-0.2c-0.2,0.2-0.4,0.2-0.7,0.2c-0.3,0-0.5-0.1-0.7-0.2c-0.1-0.1-0.2-0.3-0.2-0.4
			c0-0.4,0.3-0.6,0.8-0.6h0.7v-0.2c0-0.3-0.2-0.5-0.6-0.5c-0.3,0-0.5,0.1-0.6,0.2l-0.2-0.2c0.2-0.2,0.5-0.3,0.8-0.3
			c0.6,0,0.9,0.2,0.9,0.7v1.5H31.9z M31.9,41.1h-0.7c-0.4,0-0.5,0.1-0.5,0.4c0,0.2,0.2,0.4,0.5,0.4c0.2,0,0.4,0,0.5-0.1
			c0.1-0.1,0.1-0.2,0.1-0.4V41.1z"/>
		<path class="st0" d="M36.1,42.1v-1.3c0-0.4-0.2-0.6-0.6-0.6c-0.3,0-0.6,0.2-0.6,0.5v1.4h-0.3v-1.3c0-0.4-0.2-0.6-0.6-0.6
			c-0.4,0-0.6,0.2-0.6,0.6v1.3h-0.3v-2.1h0.3v0.2c0.2-0.2,0.4-0.3,0.7-0.3c0.3,0,0.6,0.1,0.7,0.4c0.2-0.2,0.4-0.4,0.8-0.4
			c0.3,0,0.5,0.1,0.6,0.2c0.2,0.1,0.3,0.3,0.3,0.6v1.4H36.1z"/>
		<path class="st0" d="M38.9,41.9c-0.1,0.1-0.3,0.2-0.6,0.2c-0.3,0-0.5-0.1-0.7-0.3V43h-0.3v-3.1h0.3v0.3c0.2-0.2,0.4-0.3,0.7-0.3
			c0.2,0,0.4,0.1,0.6,0.2c0.2,0.2,0.3,0.6,0.3,0.9C39.2,41.4,39.1,41.7,38.9,41.9z M38.3,40.2c-0.5,0-0.6,0.4-0.6,0.8
			c0,0.4,0.1,0.8,0.6,0.8c0.5,0,0.6-0.4,0.6-0.8C38.9,40.6,38.8,40.2,38.3,40.2z"/>
		<path class="st0" d="M41.3,42.1v-0.2c-0.2,0.2-0.4,0.2-0.7,0.2c-0.3,0-0.5-0.1-0.7-0.2c-0.1-0.1-0.2-0.3-0.2-0.4
			c0-0.4,0.3-0.6,0.8-0.6h0.7v-0.2c0-0.3-0.2-0.5-0.6-0.5c-0.3,0-0.5,0.1-0.6,0.2l-0.2-0.2c0.2-0.2,0.5-0.3,0.8-0.3
			c0.6,0,0.9,0.2,0.9,0.7v1.5H41.3z M41.3,41.1h-0.7c-0.4,0-0.5,0.1-0.5,0.4c0,0.2,0.2,0.4,0.5,0.4c0.2,0,0.4,0,0.5-0.1
			c0.1-0.1,0.1-0.2,0.1-0.4V41.1z"/>
		<path class="st0" d="M42.4,39.3V39h0.4v0.4H42.4z M42.5,42.1v-2.1h0.3v2.1H42.5z"/>
		<path class="st0" d="M44.4,43.1c-0.4,0-0.6-0.1-0.8-0.3l0.2-0.2c0.2,0.1,0.3,0.2,0.6,0.2c0.5,0,0.6-0.3,0.6-0.7v-0.3
			c-0.2,0.2-0.4,0.3-0.7,0.3c-0.2,0-0.4-0.1-0.6-0.2c-0.2-0.2-0.3-0.5-0.3-0.9c0-0.3,0.1-0.7,0.3-0.9c0.1-0.1,0.3-0.2,0.6-0.2
			c0.3,0,0.5,0.1,0.7,0.3v-0.3h0.3v2.2C45.4,42.7,45,43.1,44.4,43.1z M44.5,40.2c-0.5,0-0.6,0.4-0.6,0.8c0,0.4,0.1,0.8,0.6,0.8
			c0.5,0,0.6-0.4,0.6-0.8C45.1,40.6,45,40.2,44.5,40.2z"/>
		<path class="st0" d="M47.8,42.1v-1.3c0-0.4-0.2-0.6-0.6-0.6c-0.4,0-0.6,0.2-0.6,0.6v1.3h-0.3v-2.1h0.3v0.2
			c0.2-0.2,0.4-0.3,0.7-0.3c0.3,0,0.5,0.1,0.6,0.2c0.2,0.1,0.2,0.3,0.2,0.6v1.4H47.8z"/>
	</g>
	<g>
		<path class="st1" d="M24.9,40H22h-0.2h-0.2c-0.4-0.1-0.7-0.4-0.7-0.7c0,0,0-0.1,0-0.1v-0.1c0,0,0,0,0,0c-0.1-1.4-0.1-3.8-0.1-3.8
			v-5.3c0-0.3-0.2-0.5-0.5-0.5c-0.3,0-0.5,0.2-0.5,0.5v4.8h-0.6v-5.5c0-0.3-0.2-0.5-0.5-0.5c-0.3,0-0.5,0.2-0.5,0.5v5.5h-0.7V30
			c0-0.3-0.2-0.5-0.5-0.5c-0.3,0-0.5,0.2-0.5,0.5v4.7h-0.7V31c0-0.3-0.2-0.5-0.5-0.5c-0.3,0-0.5,0.2-0.5,0.5v5.3c0,0,0,0.1,0,0.1
			v1.9c0,2.5,2,2.6,2,2.6h2.8H21h3.9c0.3,0,0.5-0.2,0.5-0.5C25.4,40.3,25.1,40,24.9,40z"/>
	</g>
	<g>
		<path class="st0" d="M22.6,26.9l1.8-1.8l0.2-0.2l0.1-0.1c0.3-0.2,0.6-0.2,0.9,0c0,0,0,0,0.1,0.1l0.1,0.1c0,0,0,0,0,0
			c0.9,0.9,2.4,2.3,2.4,2.4l3.3,3.4c0.2,0.2,0.5,0.2,0.6,0c0.2-0.2,0.2-0.5,0-0.7l-3-3l0.4-0.4l3.5,3.5c0.2,0.2,0.5,0.2,0.6,0
			c0.2-0.2,0.2-0.5,0-0.7L30.1,26l0.5-0.5l3,3c0.2,0.2,0.5,0.2,0.6,0c0.2-0.2,0.2-0.5,0-0.7l-3-3l0.4-0.4l2.3,2.3
			c0.2,0.2,0.5,0.2,0.6,0c0.2-0.2,0.2-0.5,0-0.7l-3.3-3.4c0,0-0.1,0-0.1-0.1L30,21.5c-1.5-1.5-2.9-0.4-2.9-0.4l-1.8,1.8l-0.9,0.9
			l-2.4,2.5c-0.2,0.2-0.2,0.5,0,0.7C22.1,27.1,22.4,27.1,22.6,26.9z"/>
	</g>
</g>
</svg>
